<?xml version="1.0" encoding="utf-8"?>
<!-- Svg Vector Icons : http://www.sfont.cn -->
<!DOCTYPE svg PUBLIC "-//W3C//DTD SVG 1.1//EN" "http://www.w3.org/Graphics/SVG/1.1/DTD/svg11.dtd">
<svg version="1.1" xmlns="http://www.w3.org/2000/svg" xmlns:xlink="http://www.w3.org/1999/xlink" x="0px" y="0px" viewBox="0 0 1000 1000" enable-background="new 0 0 1000 1000" xml:space="preserve">
<metadata> Svg Vector Icons : http://www.sfont.cn </metadata>
<g><path d="M785.8,10H214.2C123.9,10,50.8,83.1,50.8,173.3v653.3c0,90.2,73.1,163.3,163.3,163.3h571.7c90.2,0,163.3-73.1,163.3-163.3V173.3C949.2,83.1,876.1,10,785.8,10z M295.8,255h245c22.5,0,40.8,18.3,40.8,40.8s-18.3,40.8-40.8,40.8h-245c-22.5,0-40.8-18.3-40.8-40.8S273.3,255,295.8,255z M704.2,663.3H295.8c-22.5,0-40.8-18.3-40.8-40.8c0-22.5,18.3-40.8,40.8-40.8h408.3c22.5,0,40.8,18.3,40.8,40.8C745,645,726.7,663.3,704.2,663.3z M704.2,500H295.8c-22.5,0-40.8-18.3-40.8-40.8s18.3-40.8,40.8-40.8h408.3c22.5,0,40.8,18.3,40.8,40.8S726.7,500,704.2,500z M782.4,914.8H210.7c-44.9,0-81.7-36.7-81.7-81.7V179.8c0-44.9,36.8-81.7,81.7-81.7h571.7c44.9,0,81.7,36.7,81.7,81.7v653.3C864.1,878,827.3,914.8,782.4,914.8z"/></g>
</svg>